<svg width="183" height="23" viewBox="0 0 183 23" fill="none" xmlns="http://www.w3.org/2000/svg">
<path d="M144.374 22.817C148.663 22.817 151.359 20.443 151.359 16.426C151.359 12.408 148.663 10.034 144.375 10.034H139.712V22.817H144.374ZM142.578 12.408H144.282C146.997 12.408 148.495 13.796 148.495 16.426C148.495 19.056 146.997 20.443 144.282 20.443H142.578V12.408ZM157.995 23C160.992 23 163.108 20.973 163.108 18.252C163.108 15.532 160.992 13.504 157.995 13.504C155.018 13.504 152.902 15.531 152.902 18.252C152.902 20.972 155.018 23 157.995 23ZM157.995 20.79C156.572 20.79 155.523 19.84 155.523 18.252C155.523 16.663 156.573 15.714 157.995 15.714C159.419 15.714 160.486 16.664 160.486 18.252C160.486 19.841 159.418 20.79 157.995 20.79ZM169.366 23C171.763 23 173.392 21.776 173.953 19.585L173.804 19.421L171.631 19.201C171.294 20.188 170.639 20.791 169.366 20.791C168.036 20.791 167.006 19.914 167.006 18.252C167.006 16.59 168.036 15.714 169.366 15.714C170.639 15.714 171.388 16.371 171.631 17.302L173.804 17.083L173.953 16.901C173.541 14.837 171.856 13.504 169.366 13.504C166.632 13.504 164.459 15.44 164.459 18.252C164.459 21.064 166.632 23 169.366 23ZM179.255 23C181.539 23 183 21.685 183 19.987C183 18.489 182.045 17.759 180.191 17.266C178.468 16.809 177.757 16.554 177.757 15.988C177.757 15.549 178.244 15.275 178.862 15.275C179.667 15.275 180.285 15.732 180.472 16.59L182.457 16.115L182.569 15.915C182.195 14.381 180.903 13.505 178.918 13.505C176.895 13.505 175.547 14.655 175.547 16.115C175.547 17.613 176.614 18.435 178.525 18.891C180.154 19.293 180.584 19.549 180.584 20.133C180.584 20.699 180.023 21.028 179.255 21.028C178 21.028 177.438 20.407 177.232 19.494L175.229 20.078L175.154 20.316C175.622 21.977 177.008 23 179.255 23Z" fill="white"/>
<path d="M8.12714 22.9641C12.092 22.9641 14.8011 20.883 15.734 17.1513L15.4828 16.8643L11.8768 16.4875C11.3206 18.156 10.2262 19.1966 8.12714 19.1966C5.92044 19.1966 4.21607 17.7075 4.21607 14.8908C4.21607 12.0741 5.92044 10.585 8.12714 10.585C10.2441 10.585 11.4821 11.6973 11.8768 13.2941L15.4828 12.9173L15.734 12.6123C15.0523 9.11389 12.2535 6.83541 8.12714 6.83541C3.58814 6.83541 0 10.1186 0 14.9087C0 19.6989 3.58814 22.9641 8.12714 22.9641ZM21.2418 0H16.9002V22.6591H21.2418V0ZM37.6755 17.4384L34.0515 17.0616C33.5312 18.4969 32.5086 19.4477 30.5172 19.4477C28.2746 19.4477 26.7675 18.0842 26.5523 15.9493H38.2137V14.8011C38.2137 9.79563 35.0203 6.81747 30.4275 6.81747C26.2114 6.81747 22.4438 10.0468 22.4438 14.8908C22.4438 19.7348 25.8346 22.9641 30.4275 22.9641C34.1232 22.9641 36.7246 21.2956 37.9087 17.8151L37.6755 17.4384ZM30.3736 10.0827C32.383 10.0827 33.8721 11.2847 34.1053 13.1505H26.6599C27.0187 11.2668 28.5796 10.0827 30.3736 10.0827ZM50.7005 8.4142C49.5523 7.48128 48.0991 6.83541 46.1435 6.83541C42.3222 6.83541 38.447 9.43682 38.447 14.9087C38.447 20.3627 42.4477 22.9821 45.8924 22.9821C48.1529 22.9821 49.6778 22.1388 50.7005 21.0624V22.6771H55.0421V7.15834H50.7005V8.4142ZM50.7005 15.6443C50.7005 17.9766 48.9961 19.376 46.915 19.376C44.5827 19.376 42.8424 17.8331 42.8424 14.9087C42.8424 11.9844 44.5827 10.4415 46.8791 10.4415C48.9961 10.4415 50.7005 11.8768 50.7005 14.1732V15.6443ZM61.3752 9.00624V7.14041H57.0335V22.6591H61.3752V13.3479C62.2363 11.4821 63.6716 10.5491 65.3401 10.5491C65.7707 10.5491 66.1474 10.6388 66.3986 10.7106L66.6139 10.4953L67.17 7.08658C66.8292 6.92512 66.3089 6.83541 65.681 6.83541C63.8689 6.83541 62.3978 7.76833 61.3752 9.00624ZM77.8268 6.83541C75.6201 6.83541 73.6287 7.82215 72.4626 9.078V0.0179418H68.1209V22.6771H72.4626V12.7738C73.4314 11.3744 74.8487 10.5671 76.3736 10.5671C77.9345 10.5671 79.1006 11.4282 79.1006 13.33V22.6771H83.4423V12.2535C83.4423 8.84478 81.1279 6.83541 77.8268 6.83541ZM96.7722 8.4142C95.624 7.48128 94.1708 6.83541 92.2153 6.83541C88.3939 6.83541 84.5187 9.43682 84.5187 14.9087C84.5187 20.3627 88.5195 22.9821 91.9641 22.9821C94.2246 22.9821 95.7496 22.1388 96.7722 21.0624V22.6771H101.114V7.15834H96.7722V8.4142ZM96.7722 15.6443C96.7722 17.9766 95.0679 19.376 92.9867 19.376C90.6544 19.376 88.9142 17.8331 88.9142 14.9087C88.9142 11.9844 90.6544 10.4415 92.9508 10.4415C95.0678 10.4415 96.7722 11.8768 96.7722 14.1732V15.6443ZM126.356 13.2223C123.504 12.4509 122.32 12.0203 122.32 11.0515C122.32 10.298 123.127 9.84945 124.15 9.84945C125.477 9.84945 126.5 10.6209 126.823 12.092L130.106 11.2847L130.285 10.9438C129.658 8.34243 127.523 6.85336 124.239 6.85336C121.297 6.85336 119.234 8.34243 118.75 10.3877L117.099 11.1412C117.117 8.9883 115.897 6.81747 113.726 6.81747C112.022 6.81747 110.264 8.21685 110.264 10.5671C110.264 12.9353 111.322 14.5679 113.009 15.2855C112.883 16.8463 112.004 18.5148 109.851 18.5148C107.519 18.5148 106.675 16.5593 106.675 14.8908V7.14041H102.603V14.8908C102.603 19.358 105.653 22.6053 109.851 22.6053C113.888 22.6053 116.866 19.6092 117.081 15.3931C117.458 15.3034 119.055 14.1911 119.952 14.3705C120.795 15.1061 121.997 15.6443 123.558 16.0211C126.267 16.7028 126.966 17.1334 126.966 18.1381C126.966 19.1069 126.034 19.663 124.76 19.663C122.679 19.663 121.746 18.6045 121.405 17.0616L118.086 18.0484L117.96 18.4431C118.732 21.2598 121.028 23 124.76 23C128.545 23 130.967 20.7574 130.967 17.8869C131.021 15.3034 129.424 14.0655 126.356 13.2223Z" fill="white"/>
</svg>
