<svg width="207" height="22" viewBox="0 0 207 22" fill="none" xmlns="http://www.w3.org/2000/svg">
<path d="M6.32953 17.9719C9.41744 17.9719 11.5273 16.3432 12.2539 13.4228L12.0582 13.1981L9.24977 12.9033C8.81662 14.209 7.9643 15.0234 6.32953 15.0234C4.61091 15.0234 3.28353 13.858 3.28353 11.6537C3.28353 9.4493 4.61091 8.28393 6.32953 8.28393C7.97828 8.28393 8.94238 9.15445 9.24977 10.4041L12.0582 10.1092L12.2539 9.87052C11.7229 7.13261 9.54319 5.34945 6.32953 5.34945C2.79449 5.34945 0 7.91888 0 11.6677C0 15.4165 2.79449 17.9719 6.32953 17.9719ZM16.5434 0H13.1621V17.7332H16.5434V0ZM29.3422 13.6474L26.5197 13.3526C26.1145 14.4758 25.3181 15.22 23.7672 15.22C22.0206 15.22 20.8469 14.1529 20.6792 12.4821H29.7613V11.5835C29.7613 7.66615 27.2742 5.33541 23.6973 5.33541C20.4138 5.33541 17.4795 7.86271 17.4795 11.6537C17.4795 15.4446 20.1203 17.9719 23.6973 17.9719C26.5756 17.9719 28.6016 16.6661 29.5238 13.9423L29.3422 13.6474ZM23.6554 7.8908C25.2203 7.8908 26.38 8.83152 26.5616 10.2917H20.7631C21.0425 8.81747 22.2581 7.8908 23.6554 7.8908ZM39.4862 6.58502C38.5919 5.85491 37.4602 5.34945 35.9372 5.34945C32.961 5.34945 29.943 7.38534 29.943 11.6677C29.943 15.936 33.0588 17.986 35.7416 17.986C37.5021 17.986 38.6897 17.3261 39.4862 16.4836V17.7473H42.8675V5.60218H39.4862V6.58502ZM39.4862 12.2434C39.4862 14.0686 38.1588 15.1638 36.538 15.1638C34.7216 15.1638 33.3662 13.9563 33.3662 11.6677C33.3662 9.3791 34.7216 8.17161 36.51 8.17161C38.1588 8.17161 39.4862 9.29485 39.4862 11.092V12.2434ZM47.7998 7.04836V5.58815H44.4185V17.7332H47.7998V10.4462C48.4705 8.98596 49.5883 8.25585 50.8877 8.25585C51.223 8.25585 51.5165 8.32605 51.7121 8.38222L51.8798 8.21373L52.3129 5.54602C52.0474 5.41966 51.6422 5.34945 51.1532 5.34945C49.742 5.34945 48.5962 6.07956 47.7998 7.04836ZM60.6125 5.34945C58.8939 5.34945 57.343 6.12169 56.4348 7.10452V0.0140414H53.0534V17.7473H56.4348V9.99688C57.1893 8.90172 58.2931 8.26989 59.4808 8.26989C60.6964 8.26989 61.6046 8.94384 61.6046 10.4321V17.7473H64.9859V9.58971C64.9859 6.922 63.1835 5.34945 60.6125 5.34945ZM75.3675 6.58502C74.4732 5.85491 73.3414 5.34945 71.8185 5.34945C68.8423 5.34945 65.8243 7.38534 65.8243 11.6677C65.8243 15.936 68.9401 17.986 71.6228 17.986C73.3834 17.986 74.571 17.3261 75.3675 16.4836V17.7473H78.7488V5.60218H75.3675V6.58502ZM75.3675 12.2434C75.3675 14.0686 74.0401 15.1638 72.4193 15.1638C70.6029 15.1638 69.2475 13.9563 69.2475 11.6677C69.2475 9.3791 70.6028 8.17161 72.3913 8.17161C74.0401 8.17161 75.3675 9.29485 75.3675 11.092V12.2434ZM98.4081 10.3479C96.1864 9.74415 95.2642 9.40718 95.2642 8.64899C95.2642 8.05928 95.893 7.70827 96.6894 7.70827C97.7234 7.70827 98.5198 8.31201 98.7713 9.46334L101.328 8.83151L101.468 8.56474C100.979 6.52886 99.3163 5.3635 96.7593 5.3635C94.4678 5.3635 92.861 6.52886 92.4837 8.12948L91.1982 8.71919C91.2122 7.03432 90.2621 5.33541 88.5714 5.33541C87.2441 5.33541 85.8747 6.43058 85.8747 8.26989C85.8747 10.1232 86.6991 11.4009 88.0125 11.9626C87.9147 13.1841 87.2301 14.4899 85.5534 14.4899C83.737 14.4899 83.0803 12.9594 83.0803 11.6537V5.58815H79.9085V11.6537C79.9085 15.1498 82.2838 17.6911 85.5534 17.6911C88.6972 17.6911 91.0166 15.3463 91.1843 12.0468C91.4777 11.9766 92.7212 11.1061 93.4199 11.2465C94.0766 11.8222 95.0127 12.2434 96.2283 12.5382C98.3382 13.0718 98.8831 13.4087 98.8831 14.195C98.8831 14.9532 98.1565 15.3885 97.1645 15.3885C95.5437 15.3885 94.8171 14.5601 94.5516 13.3526L91.9667 14.1248L91.8689 14.4337C92.4697 16.6381 94.2582 18 97.1645 18C100.113 18 101.999 16.2449 101.999 13.9984C102.041 11.9766 100.797 11.0078 98.4081 10.3479Z" fill="#FC1154"/>
<path d="M114.906 15.627H116.691C119.148 15.627 120.492 14.052 120.492 11.553C120.492 9.033 119.148 7.458 116.691 7.458H114.906V15.627ZM112.239 18V5.106H116.796C120.702 5.106 123.159 7.626 123.159 11.553C123.159 15.48 120.702 18 116.796 18H112.239ZM130.725 14.934H133.14C132.804 16.929 131.334 18.21 128.982 18.21C126.252 18.21 124.425 16.215 124.425 13.317C124.425 10.482 126.315 8.403 128.94 8.403C131.691 8.403 133.203 10.314 133.203 13.065V13.863H126.945C127.029 15.27 127.827 16.11 128.982 16.11C129.864 16.11 130.515 15.732 130.725 14.934ZM128.961 10.524C127.953 10.524 127.239 11.133 127.008 12.288H130.641C130.62 11.301 130.032 10.524 128.961 10.524ZM139.86 18H137.34L133.791 8.613H136.521L138.684 14.85L140.805 8.613H143.43L139.86 18ZM150.269 14.934H152.684C152.348 16.929 150.878 18.21 148.526 18.21C145.796 18.21 143.969 16.215 143.969 13.317C143.969 10.482 145.859 8.403 148.484 8.403C151.235 8.403 152.747 10.314 152.747 13.065V13.863H146.489C146.573 15.27 147.371 16.11 148.526 16.11C149.408 16.11 150.059 15.732 150.269 14.934ZM148.505 10.524C147.497 10.524 146.783 11.133 146.552 12.288H150.185C150.164 11.301 149.576 10.524 148.505 10.524ZM157.005 4.35V18H154.401V4.35H157.005ZM167.891 13.317C167.891 16.194 166.022 18.21 163.292 18.21C160.562 18.21 158.693 16.194 158.693 13.317C158.693 10.419 160.562 8.403 163.292 8.403C166.022 8.403 167.891 10.419 167.891 13.317ZM165.308 13.317C165.308 11.742 164.594 10.608 163.292 10.608C161.99 10.608 161.276 11.742 161.276 13.317C161.276 14.871 161.99 16.005 163.292 16.005C164.594 16.005 165.308 14.871 165.308 13.317ZM172.16 17.223V21.465H169.556V8.613H172.16V9.39C172.58 8.886 173.504 8.403 174.512 8.403C177.242 8.403 178.796 10.671 178.796 13.317C178.796 15.963 177.242 18.21 174.512 18.21C173.504 18.21 172.58 17.727 172.16 17.223ZM172.16 11.763V14.85C172.475 15.501 173.168 15.942 173.924 15.942C175.331 15.942 176.171 14.808 176.171 13.317C176.171 11.805 175.331 10.671 173.924 10.671C173.147 10.671 172.475 11.133 172.16 11.763ZM186.24 14.934H188.655C188.319 16.929 186.849 18.21 184.497 18.21C181.767 18.21 179.94 16.215 179.94 13.317C179.94 10.482 181.83 8.403 184.455 8.403C187.206 8.403 188.718 10.314 188.718 13.065V13.863H182.46C182.544 15.27 183.342 16.11 184.497 16.11C185.379 16.11 186.03 15.732 186.24 14.934ZM184.476 10.524C183.468 10.524 182.754 11.133 182.523 12.288H186.156C186.135 11.301 185.547 10.524 184.476 10.524ZM196.062 8.571V11.175C195.705 10.965 195.243 10.86 194.76 10.86C193.878 10.86 193.164 11.322 192.975 12.183V18H190.371V8.613H192.975V9.537C193.374 8.865 194.151 8.403 195.075 8.403C195.516 8.403 195.915 8.487 196.062 8.571ZM197.043 15.207H199.626C199.836 15.879 200.424 16.236 201.201 16.236C201.999 16.236 202.524 15.921 202.524 15.312C202.524 14.892 202.23 14.682 201.579 14.514L199.689 14.094C198.261 13.758 197.253 13.023 197.253 11.448C197.253 9.621 198.891 8.403 200.991 8.403C203.364 8.403 204.666 9.537 204.981 11.301H202.503C202.335 10.776 201.894 10.377 201.033 10.377C200.403 10.377 199.794 10.671 199.794 11.259C199.794 11.637 200.046 11.847 200.634 11.994L202.566 12.435C204.204 12.834 205.065 13.737 205.065 15.165C205.065 17.076 203.406 18.21 201.222 18.21C198.933 18.21 197.316 17.118 197.043 15.207Z" fill="#6D7184"/>
</svg>
