<?xml version="1.0" encoding="UTF-8"?>
<svg width="171px" height="49px" viewBox="0 0 171 49" version="1.1" xmlns="http://www.w3.org/2000/svg" xmlns:xlink="http://www.w3.org/1999/xlink">
    <!-- Generator: Sketch 39.1 (31720) - http://www.bohemiancoding.com/sketch -->
    <title>Group 6</title>
    <desc>Created with Sketch.</desc>
    <defs></defs>
    <g id="Page-1" stroke="none" stroke-width="1" fill="none" fill-rule="evenodd">
        <g id="Developers" transform="translate(-138.000000, -34.000000)" fill="#FFFFFF">
		<g id="Group-6" transform="translate(138.000000, 34.000000)">
			<g id="Group-35">
                    <polyline id="Path-107" points="33.5884209 0.0428735966 0 19.3431792 1.3425908e-15 41.269351 33.58842 48.3730249"></polyline>
                    <polygon id="Path-108" opacity="0.25" points="36 3 36 46.6773619 49.4792369 41.7281846 49.4792369 30.8770107 49.4792369 17.5188393"></polygon>
                    <g id="Group-33" transform="translate(74.000000, 10.000000)">
                        <g id="Group-34">
                            <path d="M0.794,12.573 C1.576,15.034 3.439,16.253 5.992,16.253 C8.315,16.253 10.109,15.103 11.006,13.102 C11.052,12.987 11.029,12.872 10.914,12.803 L9.534,12.136 C9.396,12.067 9.258,12.136 9.212,12.251 C8.591,13.47 7.625,14.344 5.992,14.344 C4.29,14.344 3.255,13.516 2.749,12.044 C2.542,11.4 2.45,10.641 2.45,8.18 C2.45,5.719 2.542,4.96 2.749,4.316 C3.255,2.844 4.29,2.016 5.992,2.016 C7.625,2.016 8.591,2.89 9.212,4.109 C9.258,4.224 9.396,4.293 9.534,4.224 L10.914,3.557 C11.029,3.488 11.052,3.373 11.006,3.258 C10.109,1.257 8.315,0.107 5.992,0.107 C3.439,0.107 1.576,1.326 0.794,3.787 C0.495,4.684 0.38,5.581 0.38,8.18 C0.38,10.779 0.495,11.676 0.794,12.573 L0.794,12.573 Z M17.0383453,16.115 C17.1763453,16.115 17.2683453,16.023 17.2683453,15.885 L17.2683453,14.551 C17.2683453,14.413 17.1763453,14.321 17.0383453,14.321 L16.6013453,14.321 C15.8423453,14.321 15.4973453,14.022 15.4973453,13.102 L15.4973453,0.59 C15.4973453,0.452 15.4053453,0.36 15.2673453,0.36 L13.7953453,0.36 C13.6573453,0.36 13.5653453,0.452 13.5653453,0.59 L13.5653453,13.217 C13.5653453,15.195 14.3243453,16.115 16.2563453,16.115 L17.0383453,16.115 Z M23.8066906,16.253 C25.7386906,16.253 27.2336906,15.471 28.1076906,14.367 C28.1996906,14.252 28.1996906,14.137 28.0846906,14.045 L27.1416906,13.194 C27.0266906,13.102 26.9116906,13.125 26.7966906,13.24 C26.1986906,13.93 25.2786906,14.459 23.9676906,14.459 C22.6106906,14.459 21.6216906,13.815 21.1846906,12.55 C21.0696906,12.182 21.0006906,11.814 21.0006906,11.216 C21.0006906,11.124 21.0466906,11.078 21.1386906,11.078 L28.1076906,11.078 C28.2686906,11.078 28.3606906,10.986 28.3606906,10.848 C28.3606906,9.169 28.2456906,8.41 28.0156906,7.697 C27.3946906,5.811 25.8076906,4.73 23.6916906,4.73 C21.5986906,4.73 19.9886906,5.788 19.3676906,7.697 C19.1376906,8.364 19.0226906,9.215 19.0226906,10.48 C19.0226906,11.745 19.1606906,12.55 19.3906906,13.263 C19.9886906,15.172 21.5756906,16.253 23.8066906,16.253 L23.8066906,16.253 Z M21.1386906,9.537 C21.0466906,9.537 21.0006906,9.491 21.0006906,9.399 C21.0006906,8.893 21.0466906,8.502 21.1616906,8.157 C21.5296906,7.053 22.4496906,6.432 23.6916906,6.432 C24.9336906,6.432 25.8536906,7.053 26.2216906,8.157 C26.3366906,8.502 26.3826906,8.893 26.3826906,9.399 C26.3826906,9.491 26.3366906,9.537 26.2446906,9.537 L21.1386906,9.537 Z M39.2000359,16 C39.3380359,16 39.4300359,15.908 39.4300359,15.77 L39.4300359,8.479 C39.4300359,5.765 38.2340359,4.73 35.1060359,4.73 C33.4730359,4.73 32.1850359,5.167 31.3570359,5.811 C31.2650359,5.903 31.2420359,5.995 31.3110359,6.133 L31.9320359,7.191 C32.0010359,7.306 32.1390359,7.306 32.2540359,7.214 C32.8980359,6.754 33.6800359,6.432 34.9220359,6.432 C36.9690359,6.432 37.5670359,7.076 37.5670359,8.594 L37.5670359,9.399 C37.5670359,9.491 37.5210359,9.537 37.4290359,9.537 L34.9220359,9.537 C32.2310359,9.537 30.6210359,10.618 30.6210359,12.941 C30.6210359,15.172 32.2310359,16.253 34.3240359,16.253 C36.0030359,16.253 37.0840359,15.632 37.5900359,14.804 L37.6130359,14.804 L37.6130359,15.77 C37.6130359,15.908 37.7050359,16 37.8430359,16 L39.2000359,16 Z M34.7840359,14.597 C33.3120359,14.597 32.4840359,13.999 32.4840359,12.872 C32.4840359,11.63 33.3120359,11.078 35.2210359,11.078 L37.4290359,11.078 C37.5210359,11.078 37.5670359,11.124 37.5670359,11.216 L37.5670359,12.435 C37.5670359,13.792 36.5090359,14.597 34.7840359,14.597 L34.7840359,14.597 Z M44.5193812,16 C44.6573812,16 44.7493812,15.908 44.7493812,15.77 L44.7493812,9.744 C44.7493812,7.835 45.4393812,6.524 47.1183812,6.524 C47.7623812,6.524 48.3143812,6.731 48.8203812,7.053 C48.9353812,7.145 49.0503812,7.122 49.1423812,7.007 L49.9933812,5.88 C50.0853812,5.765 50.0623812,5.673 49.9473812,5.558 C49.3953812,5.052 48.5673812,4.73 47.6933812,4.73 C46.2213812,4.73 45.2553812,5.397 44.7723812,6.34 L44.7493812,6.34 L44.7493812,5.213 C44.7493812,5.075 44.6573812,4.983 44.5193812,4.983 L43.0473812,4.983 C42.9093812,4.983 42.8173812,5.075 42.8173812,5.213 L42.8173812,15.77 C42.8173812,15.908 42.9093812,16 43.0473812,16 L44.5193812,16 Z M60.5797265,16 C60.7177265,16 60.8097265,15.908 60.8097265,15.77 L60.8097265,8.87 C60.8097265,6.363 59.3837265,4.73 56.9917265,4.73 C55.4967265,4.73 54.4387265,5.374 53.9097265,6.225 L53.8867265,6.225 L53.8867265,0.59 C53.8867265,0.452 53.7947265,0.36 53.6567265,0.36 L52.1847265,0.36 C52.0467265,0.36 51.9547265,0.452 51.9547265,0.59 L51.9547265,15.77 C51.9547265,15.908 52.0467265,16 52.1847265,16 L53.6567265,16 C53.7947265,16 53.8867265,15.908 53.8867265,15.77 L53.8867265,9.215 C53.8867265,7.582 54.9217265,6.524 56.4167265,6.524 C58.0727265,6.524 58.8777265,7.559 58.8777265,9.33 L58.8777265,15.77 C58.8777265,15.908 58.9697265,16 59.1077265,16 L60.5797265,16 Z M72.2010718,16 C72.3390718,16 72.4310718,15.908 72.4310718,15.77 L72.4310718,8.479 C72.4310718,5.765 71.2350718,4.73 68.1070718,4.73 C66.4740718,4.73 65.1860718,5.167 64.3580718,5.811 C64.2660718,5.903 64.2430718,5.995 64.3120718,6.133 L64.9330718,7.191 C65.0020718,7.306 65.1400718,7.306 65.2550718,7.214 C65.8990718,6.754 66.6810718,6.432 67.9230718,6.432 C69.9700718,6.432 70.5680718,7.076 70.5680718,8.594 L70.5680718,9.399 C70.5680718,9.491 70.5220718,9.537 70.4300718,9.537 L67.9230718,9.537 C65.2320718,9.537 63.6220718,10.618 63.6220718,12.941 C63.6220718,15.172 65.2320718,16.253 67.3250718,16.253 C69.0040718,16.253 70.0850718,15.632 70.5910718,14.804 L70.6140718,14.804 L70.6140718,15.77 C70.6140718,15.908 70.7060718,16 70.8440718,16 L72.2010718,16 Z M67.7850718,14.597 C66.3130718,14.597 65.4850718,13.999 65.4850718,12.872 C65.4850718,11.63 66.3130718,11.078 68.2220718,11.078 L70.4300718,11.078 C70.5220718,11.078 70.5680718,11.124 70.5680718,11.216 L70.5680718,12.435 C70.5680718,13.792 69.5100718,14.597 67.7850718,14.597 L67.7850718,14.597 Z M84.2134171,16 C84.3514171,16 84.4434171,15.908 84.4434171,15.77 L84.4434171,5.213 C84.4434171,5.075 84.3514171,4.983 84.2134171,4.983 L82.7414171,4.983 C82.6034171,4.983 82.5114171,5.075 82.5114171,5.213 L82.5114171,11.745 C82.5114171,13.401 81.5224171,14.459 80.0274171,14.459 C78.3944171,14.459 77.5894171,13.424 77.5894171,11.63 L77.5894171,5.213 C77.5894171,5.075 77.4974171,4.983 77.3594171,4.983 L75.8874171,4.983 C75.7494171,4.983 75.6574171,5.075 75.6574171,5.213 L75.6574171,12.09 C75.6574171,14.597 77.0604171,16.253 79.4754171,16.253 C80.9014171,16.253 81.9134171,15.655 82.4884171,14.735 L82.5114171,14.735 L82.5114171,15.77 C82.5114171,15.908 82.6034171,16 82.7414171,16 L84.2134171,16 Z M91.7177625,16.253 C94.5927625,16.253 96.1567625,14.804 96.1567625,12.642 C96.1567625,10.871 95.0757625,9.744 92.8447625,9.537 L91.6947625,9.422 C90.0617625,9.261 89.5327625,8.801 89.5327625,7.927 C89.5327625,7.03 90.2457625,6.409 91.6257625,6.409 C92.7527625,6.409 93.8797625,6.846 94.5927625,7.306 C94.7077625,7.375 94.8227625,7.375 94.9147625,7.26 L95.6967625,6.271 C95.7657625,6.156 95.7657625,6.018 95.6507625,5.949 C94.7307625,5.259 93.3507625,4.73 91.7407625,4.73 C89.1417625,4.73 87.6467625,5.995 87.6467625,8.088 C87.6467625,9.882 88.7737625,10.963 90.9357625,11.193 L92.1087625,11.308 C93.8337625,11.492 94.2477625,11.975 94.2477625,12.849 C94.2477625,13.838 93.4427625,14.528 91.8327625,14.528 C90.4987625,14.528 89.2567625,13.976 88.4287625,13.263 C88.3367625,13.171 88.1987625,13.171 88.1067625,13.263 L87.1637625,14.275 C87.0717625,14.367 87.0717625,14.505 87.1637625,14.597 C88.0607625,15.379 89.5787625,16.253 91.7177625,16.253 L91.7177625,16.253 Z" id="Clearhaus"></path>
                            <path d="M0.75,32.9 C0.75,32.96 0.79,33 0.85,33 L3.28,33 C4.45,33 5.23,32.48 5.55,31.49 C5.66,31.15 5.72,30.78 5.72,29.6 C5.72,28.42 5.66,28.05 5.55,27.71 C5.23,26.72 4.45,26.2 3.28,26.2 L0.85,26.2 C0.79,26.2 0.75,26.24 0.75,26.3 L0.75,32.9 Z M1.93,31.88 L1.93,27.32 C1.93,27.28 1.95,27.26 1.99,27.26 L3,27.26 C3.75,27.26 4.21,27.51 4.41,28.12 C4.48,28.31 4.53,28.61 4.53,29.6 C4.53,30.58 4.48,30.89 4.41,31.08 C4.21,31.69 3.75,31.94 3,31.94 L1.99,31.94 C1.95,31.94 1.93,31.92 1.93,31.88 L1.93,31.88 Z M8,32.9 C8,32.96 8.04,33 8.1,33 L12.36,33 C12.42,33 12.46,32.96 12.46,32.9 L12.46,32.04 C12.46,31.98 12.42,31.94 12.36,31.94 L9.24,31.94 C9.2,31.94 9.18,31.92 9.18,31.88 L9.18,30.16 C9.18,30.12 9.2,30.1 9.24,30.1 L11.87,30.1 C11.93,30.1 11.97,30.06 11.97,30 L11.97,29.14 C11.97,29.08 11.93,29.04 11.87,29.04 L9.24,29.04 C9.2,29.04 9.18,29.02 9.18,28.98 L9.18,27.32 C9.18,27.28 9.2,27.26 9.24,27.26 L12.36,27.26 C12.42,27.26 12.46,27.22 12.46,27.16 L12.46,26.3 C12.46,26.24 12.42,26.2 12.36,26.2 L8.1,26.2 C8.04,26.2 8,26.24 8,26.3 L8,32.9 Z M17.18,33 C17.24,33 17.28,32.96 17.3,32.9 L19.46,26.3 C19.48,26.24 19.44,26.2 19.38,26.2 L18.41,26.2 C18.34,26.2 18.3,26.23 18.28,26.3 L16.82,31.12 L16.79,31.12 L15.27,26.3 C15.25,26.23 15.21,26.2 15.14,26.2 L14.17,26.2 C14.11,26.2 14.07,26.24 14.09,26.3 L16.24,32.9 C16.26,32.96 16.3,33 16.36,33 L17.18,33 Z M21.35,32.9 C21.35,32.96 21.39,33 21.45,33 L25.71,33 C25.77,33 25.81,32.96 25.81,32.9 L25.81,32.04 C25.81,31.98 25.77,31.94 25.71,31.94 L22.59,31.94 C22.55,31.94 22.53,31.92 22.53,31.88 L22.53,30.16 C22.53,30.12 22.55,30.1 22.59,30.1 L25.22,30.1 C25.28,30.1 25.32,30.06 25.32,30 L25.32,29.14 C25.32,29.08 25.28,29.04 25.22,29.04 L22.59,29.04 C22.55,29.04 22.53,29.02 22.53,28.98 L22.53,27.32 C22.53,27.28 22.55,27.26 22.59,27.26 L25.71,27.26 C25.77,27.26 25.81,27.22 25.81,27.16 L25.81,26.3 C25.81,26.24 25.77,26.2 25.71,26.2 L21.45,26.2 C21.39,26.2 21.35,26.24 21.35,26.3 L21.35,32.9 Z M28.05,32.9 C28.05,32.96 28.09,33 28.15,33 L32.41,33 C32.47,33 32.51,32.96 32.51,32.9 L32.51,32.04 C32.51,31.98 32.47,31.94 32.41,31.94 L29.29,31.94 C29.25,31.94 29.23,31.92 29.23,31.88 L29.23,26.3 C29.23,26.24 29.19,26.2 29.13,26.2 L28.15,26.2 C28.09,26.2 28.05,26.24 28.05,26.3 L28.05,32.9 Z M36.64,33.11 C37.82,33.11 38.7,32.55 39.05,31.47 C39.19,31.05 39.23,30.67 39.23,29.6 C39.23,28.53 39.19,28.15 39.05,27.73 C38.7,26.65 37.82,26.09 36.64,26.09 C35.47,26.09 34.59,26.65 34.24,27.73 C34.1,28.15 34.06,28.53 34.06,29.6 C34.06,30.67 34.1,31.05 34.24,31.47 C34.59,32.55 35.47,33.11 36.64,33.11 L36.64,33.11 Z M36.64,32.05 C35.97,32.05 35.57,31.71 35.38,31.16 C35.3,30.91 35.26,30.56 35.26,29.6 C35.26,28.63 35.3,28.29 35.38,28.04 C35.57,27.49 35.97,27.15 36.64,27.15 C37.32,27.15 37.72,27.49 37.91,28.04 C37.99,28.29 38.03,28.63 38.03,29.6 C38.03,30.56 37.99,30.91 37.91,31.16 C37.72,31.71 37.32,32.05 36.64,32.05 L36.64,32.05 Z M42.61,33 C42.67,33 42.71,32.96 42.71,32.9 L42.71,30.49 C42.71,30.45 42.73,30.43 42.77,30.43 L44.18,30.43 C45.5,30.43 46.42,29.58 46.42,28.31 C46.42,27.05 45.5,26.2 44.18,26.2 L41.63,26.2 C41.57,26.2 41.53,26.24 41.53,26.3 L41.53,32.9 C41.53,32.96 41.57,33 41.63,33 L42.61,33 Z M44.11,29.36 L42.77,29.36 C42.73,29.36 42.71,29.34 42.71,29.3 L42.71,27.32 C42.71,27.28 42.73,27.26 42.77,27.26 L44.11,27.26 C44.81,27.26 45.24,27.69 45.24,28.31 C45.24,28.94 44.81,29.36 44.11,29.36 L44.11,29.36 Z M48.51,32.9 C48.51,32.96 48.55,33 48.61,33 L52.87,33 C52.93,33 52.97,32.96 52.97,32.9 L52.97,32.04 C52.97,31.98 52.93,31.94 52.87,31.94 L49.75,31.94 C49.71,31.94 49.69,31.92 49.69,31.88 L49.69,30.16 C49.69,30.12 49.71,30.1 49.75,30.1 L52.38,30.1 C52.44,30.1 52.48,30.06 52.48,30 L52.48,29.14 C52.48,29.08 52.44,29.04 52.38,29.04 L49.75,29.04 C49.71,29.04 49.69,29.02 49.69,28.98 L49.69,27.32 C49.69,27.28 49.71,27.26 49.75,27.26 L52.87,27.26 C52.93,27.26 52.97,27.22 52.97,27.16 L52.97,26.3 C52.97,26.24 52.93,26.2 52.87,26.2 L48.61,26.2 C48.55,26.2 48.51,26.24 48.51,26.3 L48.51,32.9 Z M60.18,33 C60.25,33 60.29,32.94 60.25,32.87 L58.82,30.1 C59.6,29.81 60.11,29.12 60.11,28.23 C60.11,27.03 59.19,26.2 57.94,26.2 L55.31,26.2 C55.25,26.2 55.21,26.24 55.21,26.3 L55.21,32.9 C55.21,32.96 55.25,33 55.31,33 L56.29,33 C56.35,33 56.39,32.96 56.39,32.9 L56.39,30.31 C56.39,30.27 56.41,30.25 56.45,30.25 L57.62,30.25 L58.92,32.9 C58.95,32.97 58.99,33 59.07,33 L60.18,33 Z M57.9,29.19 L56.45,29.19 C56.41,29.19 56.39,29.17 56.39,29.13 L56.39,27.32 C56.39,27.28 56.41,27.26 56.45,27.26 L57.9,27.26 C58.52,27.26 58.94,27.64 58.94,28.23 C58.94,28.81 58.52,29.19 57.9,29.19 L57.9,29.19 Z M64.54,33.11 C66.23,33.11 67.1,32.21 67.1,31 C67.1,29.83 66.38,29.21 65.07,29.03 L64.71,28.98 C63.79,28.85 63.46,28.53 63.46,28.06 C63.46,27.53 63.84,27.15 64.53,27.15 C65.1,27.15 65.61,27.32 66.16,27.68 C66.21,27.71 66.26,27.7 66.3,27.65 L66.78,26.91 C66.82,26.85 66.81,26.81 66.76,26.77 C66.22,26.36 65.41,26.09 64.56,26.09 C63.16,26.09 62.26,26.91 62.26,28.14 C62.26,29.27 63,29.9 64.31,30.08 L64.67,30.13 C65.61,30.26 65.91,30.58 65.91,31.07 C65.91,31.64 65.44,32.05 64.63,32.05 C63.87,32.05 63.22,31.68 62.78,31.33 C62.74,31.29 62.68,31.29 62.64,31.34 L62.02,32.06 C61.98,32.11 62,32.17 62.04,32.21 C62.57,32.71 63.54,33.11 64.54,33.11 L64.54,33.11 Z" id="DEVELOPERS" opacity="0.400000006"></path>
                        </g>
                    </g>
				</g>
			</g>
		</g>
	</g>
</svg>
